# 3ds Max Wavefront OBJ Exporter v0.97b - (c)2007 guruware
# File Created: 31.08.2015 23:45:24

mtllib Grnd_SegmentLOD.mtl

#
# object _001
#

#
# object Plane006
#

v  -5.00000 -0.30000 32.00000
v  5.00000 -0.30000 32.00000
v  -5.00000 -0.30000 -32.00000
v  5.00000 -0.30000 -32.00000
v  -5.00000 -0.30000 -0.00000
v  5.00000 -0.30000 -0.00000
# 6 vertices

vn 0.00000 1.00000 -0.00000
# 1 vertex normals

vt 0.00000 0.50000 0.00000
vt 1.00000 0.50000 0.00000
vt 1.00000 1.00000 0.00000
vt 0.00000 1.00000 0.00000
vt 0.00000 0.00000 0.00000
vt 1.00000 0.00000 0.00000
# 6 texture coords

g Plane006
usemtl wire_184228153
f 5/1/1 6/2/1 4/3/1 
f 4/3/1 3/4/1 5/1/1 
f 1/5/1 2/6/1 6/2/1 
f 6/2/1 5/1/1 1/5/1 
# 4 faces

