# 3ds Max Wavefront OBJ Exporter v0.97b - (c)2007 guruware
# File Created: 24.09.2015 08:25:54

#
# object Plane001
#

v  -6.00000 0.00000 -0.00000
v  -8.00000 0.00000 -0.00000
v  -8.00000 0.00000 10.66666
v  -6.00000 0.00000 10.66666
v  6.00000 -0.30000 -0.00000
v  0.00000 -0.30000 -0.00000
v  0.00000 -0.30000 10.66667
v  6.00000 -0.30000 10.66667
v  9.00000 -1.00000 -0.00000
v  8.00000 0.00000 -0.00000
v  8.00000 0.00000 10.66667
v  9.00000 -1.00000 10.66667
v  -9.00000 -1.00000 -0.00000
v  -8.00000 0.00000 -10.66667
v  -9.00000 -1.00000 -10.66667
v  6.00000 0.00000 -0.00000
v  6.00000 0.00000 10.66667
v  -6.00000 -0.30000 -0.00000
v  -6.00000 -0.30000 10.66666
v  -6.00000 -0.30000 -10.66667
v  -6.00000 0.00000 -10.66667
v  -6.00000 0.00000 -32.00000
v  -8.00000 0.00000 -32.00000
v  -8.00000 0.00000 -21.33333
v  -6.00000 0.00000 -21.33333
v  -8.00000 0.00000 32.00000
v  -6.00000 0.00000 32.00000
v  -6.00000 0.00000 21.33334
v  -8.00000 0.00000 21.33334
v  6.00000 -0.30000 -32.00000
v  0.00000 -0.30000 -32.00000
v  0.00000 -0.30000 -21.33334
v  6.00000 -0.30000 -21.33334
v  0.00000 -0.30000 -10.66666
v  6.00000 -0.30000 -10.66666
v  0.00000 -0.30000 32.00000
v  6.00000 -0.30000 32.00000
v  6.00000 -0.30000 21.33333
v  0.00000 -0.30000 21.33333
v  9.00000 -1.00000 -32.00000
v  8.00000 0.00000 -32.00000
v  8.00000 0.00000 -21.33334
v  9.00000 -1.00000 -21.33334
v  8.00000 0.00000 -10.66666
v  9.00000 -1.00000 -10.66666
v  8.00000 0.00000 32.00000
v  9.00000 -1.00000 32.00000
v  9.00000 -1.00000 21.33333
v  8.00000 0.00000 21.33333
v  -9.00000 -1.00000 32.00000
v  -9.00000 -1.00000 21.33334
v  -9.00000 -1.00000 10.66666
v  -9.00000 -1.00000 -32.00000
v  -9.00000 -1.00000 -21.33333
v  6.00000 0.00000 -32.00000
v  6.00000 0.00000 -21.33334
v  6.00000 0.00000 -10.66666
v  6.00000 0.00000 32.00000
v  6.00000 0.00000 21.33333
v  -6.00000 -0.30000 -32.00000
v  -6.00000 -0.30000 -21.33333
v  -6.00000 -0.30000 32.00000
v  -6.00000 -0.30000 21.33334
# 63 vertices

vn 0.00000 1.00000 -0.00000
vn -0.38268 0.92388 -0.00000
vn 0.70711 0.70711 -0.00000
vn 0.38268 0.92388 -0.00000
vn -0.70711 0.70711 -0.00000
vn 1.00000 0.00000 -0.00000
vn -1.00000 0.00000 -0.00000
# 7 vertex normals

vt 0.20588 0.49982 0.00000
vt 0.04337 0.49982 0.00000
vt 0.04337 0.33316 0.00000
vt 0.20588 0.33316 0.00000
vt 0.79380 0.50000 0.00000
vt 0.50000 0.50000 0.00000
vt 0.50000 0.33333 0.00000
vt 0.79380 0.33333 0.00000
vt 1.00000 0.50000 0.00000
vt 1.00000 0.33333 0.00000
vt 0.00000 0.50000 0.00000
vt 0.00000 0.66667 0.00000
vt 0.95711 0.49945 0.00000
vt 0.79461 0.49945 0.00000
vt 0.79461 0.33278 0.00000
vt 0.95711 0.33278 0.00000
vt 0.20620 0.50000 0.00000
vt 0.20620 0.33333 0.00000
vt 0.82588 0.99997 0.00000
vt 0.82588 -0.00003 0.00000
vt 0.82394 -0.00003 0.00000
vt 0.82394 0.99997 0.00000
vt 0.82588 0.99996 0.00000
vt 0.82588 -0.00004 0.00000
vt 0.82782 -0.00004 0.00000
vt 0.82782 0.99996 0.00000
vt 0.20588 0.99982 0.00000
vt 0.04337 0.99982 0.00000
vt 0.04337 0.83316 0.00000
vt 0.20588 0.83316 0.00000
vt 0.04337 0.66649 0.00000
vt 0.20588 0.66649 0.00000
vt 0.04337 -0.00018 0.00000
vt 0.20588 -0.00018 0.00000
vt 0.20588 0.16649 0.00000
vt 0.04337 0.16649 0.00000
vt 0.79380 1.00000 0.00000
vt 0.50000 1.00000 0.00000
vt 0.50000 0.83333 0.00000
vt 0.79380 0.83333 0.00000
vt 0.50000 0.66667 0.00000
vt 0.79380 0.66667 0.00000
vt 0.50000 0.00000 0.00000
vt 0.79380 0.00000 0.00000
vt 0.79380 0.16667 0.00000
vt 0.50000 0.16667 0.00000
vt 1.00000 1.00000 0.00000
vt 1.00000 0.83333 0.00000
vt 1.00000 0.66667 0.00000
vt 1.00000 0.00000 0.00000
vt 1.00000 0.16667 0.00000
vt 0.00000 0.00000 0.00000
vt 0.00000 0.16667 0.00000
vt 0.00000 0.33333 0.00000
vt 0.00000 1.00000 0.00000
vt 0.00000 0.83333 0.00000
vt 0.95711 0.99945 0.00000
vt 0.79460 0.99945 0.00000
vt 0.79460 0.83278 0.00000
vt 0.95711 0.83278 0.00000
vt 0.79461 0.66611 0.00000
vt 0.95711 0.66611 0.00000
vt 0.79461 -0.00055 0.00000
vt 0.95711 -0.00055 0.00000
vt 0.95711 0.16611 0.00000
vt 0.79461 0.16611 0.00000
vt 0.20620 1.00000 0.00000
vt 0.20620 0.83333 0.00000
vt 0.20620 0.66667 0.00000
vt 0.20620 0.00000 0.00000
vt 0.20620 0.16667 0.00000
vt 0.83171 0.99997 0.00000
vt 0.83171 -0.00003 0.00000
vt 0.82976 -0.00003 0.00000
vt 0.82976 0.99997 0.00000
vt 0.82782 -0.00003 0.00000
vt 0.82782 0.99997 0.00000
vt 0.82005 -0.00003 0.00000
vt 0.82005 0.99997 0.00000
vt 0.82199 0.99997 0.00000
vt 0.82199 -0.00003 0.00000
vt 0.82005 0.99996 0.00000
vt 0.82005 -0.00004 0.00000
vt 0.82199 -0.00004 0.00000
vt 0.82199 0.99996 0.00000
vt 0.82394 -0.00004 0.00000
vt 0.82394 0.99996 0.00000
vt 0.83171 -0.00004 0.00000
vt 0.83171 0.99996 0.00000
vt 0.82976 0.99996 0.00000
vt 0.82976 -0.00004 0.00000
# 91 texture coords

g Plane001
f 1/1/1 2/2/2 3/3/2 
f 3/3/2 4/4/1 1/1/1 
f 5/5/1 6/6/1 7/7/1 
f 7/7/1 8/8/1 5/5/1 
f 9/9/3 10/9/4 11/10/4 
f 11/10/4 12/10/3 9/9/3 
f 13/11/5 2/11/2 14/12/2 
f 14/12/2 15/12/5 13/11/5 
f 10/13/4 16/14/1 17/15/1 
f 17/15/1 11/16/4 10/13/4 
f 6/6/1 18/17/1 19/18/1 
f 19/18/1 7/7/1 6/6/1 
f 1/19/6 18/20/6 20/21/6 
f 20/21/6 21/22/6 1/19/6 
f 16/23/7 5/24/7 8/25/7 
f 8/25/7 17/26/7 16/23/7 
f 22/27/1 23/28/2 24/29/2 
f 24/29/2 25/30/1 22/27/1 
f 25/30/1 24/29/2 14/31/2 
f 14/31/2 21/32/1 25/30/1 
f 21/32/1 14/31/2 2/2/2 
f 2/2/2 1/1/1 21/32/1 
f 26/33/2 27/34/1 28/35/1 
f 28/35/1 29/36/2 26/33/2 
f 29/36/2 28/35/1 4/4/1 
f 4/4/1 3/3/2 29/36/2 
f 30/37/1 31/38/1 32/39/1 
f 32/39/1 33/40/1 30/37/1 
f 33/40/1 32/39/1 34/41/1 
f 34/41/1 35/42/1 33/40/1 
f 35/42/1 34/41/1 6/6/1 
f 6/6/1 5/5/1 35/42/1 
f 36/43/1 37/44/1 38/45/1 
f 38/45/1 39/46/1 36/43/1 
f 39/46/1 38/45/1 8/8/1 
f 8/8/1 7/7/1 39/46/1 
f 40/47/3 41/47/4 42/48/4 
f 42/48/4 43/48/3 40/47/3 
f 43/48/3 42/48/4 44/49/4 
f 44/49/4 45/49/3 43/48/3 
f 45/49/3 44/49/4 10/9/4 
f 10/9/4 9/9/3 45/49/3 
f 46/50/4 47/50/3 48/51/3 
f 48/51/3 49/51/4 46/50/4 
f 49/51/4 48/51/3 12/10/3 
f 12/10/3 11/10/4 49/51/4 
f 50/52/5 26/52/2 29/53/2 
f 29/53/2 51/53/5 50/52/5 
f 51/53/5 29/53/2 3/54/2 
f 3/54/2 52/54/5 51/53/5 
f 52/54/5 3/54/2 2/11/2 
f 2/11/2 13/11/5 52/54/5 
f 23/55/2 53/55/5 54/56/5 
f 54/56/5 24/56/2 23/55/2 
f 24/56/2 54/56/5 15/12/5 
f 15/12/5 14/12/2 24/56/2 
f 41/57/4 55/58/1 56/59/1 
f 56/59/1 42/60/4 41/57/4 
f 42/60/4 56/59/1 57/61/1 
f 57/61/1 44/62/4 42/60/4 
f 44/62/4 57/61/1 16/14/1 
f 16/14/1 10/13/4 44/62/4 
f 58/63/1 46/64/4 49/65/4 
f 49/65/4 59/66/1 58/63/1 
f 59/66/1 49/65/4 11/16/4 
f 11/16/4 17/15/1 59/66/1 
f 31/38/1 60/67/1 61/68/1 
f 61/68/1 32/39/1 31/38/1 
f 32/39/1 61/68/1 20/69/1 
f 20/69/1 34/41/1 32/39/1 
f 34/41/1 20/69/1 18/17/1 
f 18/17/1 6/6/1 34/41/1 
f 62/70/1 36/43/1 39/46/1 
f 39/46/1 63/71/1 62/70/1 
f 63/71/1 39/46/1 7/7/1 
f 7/7/1 19/18/1 63/71/1 
f 27/72/6 62/73/6 63/74/6 
f 63/74/6 28/75/6 27/72/6 
f 28/75/6 63/74/6 19/76/6 
f 19/76/6 4/77/6 28/75/6 
f 4/77/6 19/76/6 18/20/6 
f 18/20/6 1/19/6 4/77/6 
f 60/78/6 22/79/6 25/80/6 
f 25/80/6 61/81/6 60/78/6 
f 61/81/6 25/80/6 21/22/6 
f 21/22/6 20/21/6 61/81/6 
f 55/82/7 30/83/7 33/84/7 
f 33/84/7 56/85/7 55/82/7 
f 56/85/7 33/84/7 35/86/7 
f 35/86/7 57/87/7 56/85/7 
f 57/87/7 35/86/7 5/24/7 
f 5/24/7 16/23/7 57/87/7 
f 37/88/7 58/89/7 59/90/7 
f 59/90/7 38/91/7 37/88/7 
f 38/91/7 59/90/7 17/26/7 
f 17/26/7 8/25/7 38/91/7 
# 96 faces

