# 3ds Max Wavefront OBJ Exporter v0.97b - (c)2007 guruware
# File Created: 24.09.2015 08:27:24

#
# object Plane001
#

v  -6.00000 0.00000 32.00000
v  -6.00000 0.00000 -32.00000
v  -8.00000 0.00000 -32.00000
v  -8.00000 0.00000 32.00000
v  6.00000 -0.30000 32.00000
v  6.00000 -0.30000 -32.00000
v  0.00000 -0.30000 -32.00000
v  0.00000 -0.30000 32.00000
v  8.00000 0.00000 -32.00000
v  8.00000 0.00000 32.00000
v  9.00000 -1.00000 32.00000
v  9.00000 -1.00000 -32.00000
v  -9.00000 -1.00000 -32.00000
v  -9.00000 -1.00000 32.00000
v  6.00000 0.00000 -32.00000
v  6.00000 0.00000 32.00000
v  -6.00000 -0.30000 -32.00000
v  -6.00000 -0.30000 32.00000
# 18 vertices

vn 0.00000 1.00000 -0.00000
vn -0.38268 0.92388 -0.00000
vn 0.38268 0.92388 -0.00000
vn 0.70711 0.70711 -0.00000
vn -0.70711 0.70711 -0.00000
vn 1.00000 0.00000 -0.00000
vn -1.00000 0.00000 -0.00000
# 7 vertex normals

vt 0.20588 -0.00018 0.00000
vt 0.20588 0.99982 0.00000
vt 0.04337 0.99982 0.00000
vt 0.04337 -0.00018 0.00000
vt 0.79380 0.00000 0.00000
vt 0.79380 1.00000 0.00000
vt 0.50000 1.00000 0.00000
vt 0.50000 0.00000 0.00000
vt 1.00000 1.00000 0.00000
vt 1.00000 0.00000 0.00000
vt 0.00000 0.00000 0.00000
vt 0.00000 1.00000 0.00000
vt 0.95711 -0.00055 0.00000
vt 0.95711 0.99945 0.00000
vt 0.79460 0.99945 0.00000
vt 0.79461 -0.00055 0.00000
vt 0.20620 1.00000 0.00000
vt 0.20620 0.00000 0.00000
vt 0.82005 0.99997 0.00000
vt 0.83171 0.99997 0.00000
vt 0.83171 -0.00003 0.00000
vt 0.82005 -0.00003 0.00000
vt 0.83171 0.99996 0.00000
vt 0.82005 0.99996 0.00000
vt 0.82005 -0.00004 0.00000
vt 0.83171 -0.00004 0.00000
# 26 texture coords

g Plane001
f 1/1/1 2/2/1 3/3/2 
f 3/3/2 4/4/2 1/1/1 
f 5/5/1 6/6/1 7/7/1 
f 7/7/1 8/8/1 5/5/1 
f 9/9/3 10/10/3 11/10/4 
f 11/10/4 12/9/4 9/9/3 
f 4/11/2 3/12/2 13/12/5 
f 13/12/5 14/11/5 4/11/2 
f 10/13/3 9/14/3 15/15/1 
f 15/15/1 16/16/1 10/13/3 
f 8/8/1 7/7/1 17/17/1 
f 17/17/1 18/18/1 8/8/1 
f 2/19/6 1/20/6 18/21/6 
f 18/21/6 17/22/6 2/19/6 
f 16/23/7 15/24/7 6/25/7 
f 6/25/7 5/26/7 16/23/7 
# 16 faces

