# 3ds Max Wavefront OBJ Exporter v0.97b - (c)2007 guruware
# File Created: 31.08.2015 23:23:56

mtllib Grnd_RdTrans_NodeLOD.mtl

#
# object _001
#

#
# object Plane005
#

v  -8.00000 -0.30000 32.00000
v  8.00000 -0.30000 32.00000
v  -8.00000 0.00000 -32.00000
v  8.00000 0.00000 -32.00000
v  5.00004 -0.30000 32.00000
v  -5.00000 -0.30000 32.00000
v  0.00000 -0.30000 32.00000
v  -8.00000 -0.15000 -0.00000
v  -5.00000 -0.15000 -0.00000
v  4.99996 -0.15000 -0.00000
v  8.00000 -0.15000 -0.00000
v  0.00000 -0.15000 -0.00000
# 12 vertices

vn 0.00000 0.99999 0.00469
vn -0.00000 0.99999 0.00469
# 2 vertex normals

vt 0.00000 1.00000 0.00000
vt 0.00000 0.50000 0.00000
vt 0.15625 0.50000 0.00000
vt 0.84375 0.50000 0.00000
vt 1.00000 0.50000 0.00000
vt 1.00000 1.00000 0.00000
vt 0.50000 1.00000 0.00000
vt 0.50000 0.50000 0.00000
vt 0.00000 0.00000 0.00000
vt 0.15625 0.00000 0.00000
vt 0.84375 0.00000 0.00000
vt 1.00000 0.00000 0.00000
vt 0.50000 0.00000 0.00000
vt 0.15625 1.00000 0.00000
vt 0.84375 1.00000 0.00000
# 15 texture coords

g Plane005
usemtl wire_154215229
f 3/1/1 8/2/1 9/3/2 
f 10/4/1 11/5/2 4/6/1 
f 4/7/1 12/8/1 10/4/1 
f 1/9/1 6/10/2 9/3/2 
f 9/3/2 8/2/1 1/9/1 
f 5/11/1 2/12/1 11/5/2 
f 11/5/2 10/4/1 5/11/1 
f 7/13/1 5/11/1 10/4/1 
f 10/4/1 12/8/1 7/13/1 
f 6/10/2 7/13/1 12/8/1 
f 12/8/1 9/3/2 6/10/2 
f 12/8/2 3/14/2 9/3/2 
f 12/8/2 4/15/2 3/14/2 
# 13 faces

