# 3ds Max Wavefront OBJ Exporter v0.97b - (c)2007 guruware
# File Created: 22.08.2015 03:35:09

mtllib 2LHW_SegHQ.mtl

#
# object Plane001
#

v  -8.00000 0.00000 -32.00000
v  8.00000 0.00000 -32.00000
v  5.00000 -0.00000 -32.00000
v  5.00000 0.00000 32.00000
v  -5.00000 0.00000 32.00000
v  -5.00000 -0.00000 -32.00000
v  8.00000 0.00000 32.00000
v  -8.00000 0.00000 32.00000
v  0.00000 0.00000 -32.00000
v  0.00000 0.00000 32.00000
v  9.00000 -1.05500 32.00000
v  -9.00000 -1.05500 32.00000
v  9.00000 -1.05000 -32.00000
v  -9.00000 -1.05000 -32.00000
v  5.00000 -0.00000 -29.21739
v  5.00000 -0.00000 -26.43478
v  5.00000 0.00000 -23.65217
v  5.00000 0.00000 -20.86957
v  5.00000 0.00000 -18.08696
v  5.00000 0.00000 -15.30435
v  5.00000 0.00000 -12.52174
v  5.00000 0.00000 -9.73913
v  5.00000 0.00000 -6.95652
v  5.00000 0.00000 -4.17391
v  5.00000 0.00000 -1.39130
v  5.00000 0.00000 1.39130
v  5.00000 0.00000 4.17391
v  5.00000 0.00000 6.95652
v  5.00000 0.00000 9.73913
v  5.00000 0.00000 12.52174
v  5.00000 0.00000 15.30435
v  5.00000 0.00000 18.08696
v  5.00000 0.00000 20.86956
v  5.00000 0.00000 23.65218
v  5.00000 0.00000 26.43478
v  5.00000 0.00000 29.21739
v  8.00000 0.00000 29.21739
v  8.00000 0.00000 26.43478
v  8.00000 0.00000 23.65217
v  8.00000 0.00000 20.86957
v  8.00000 0.00000 18.08696
v  8.00000 0.00000 15.30435
v  8.00000 0.00000 12.52174
v  8.00000 0.00000 9.73913
v  8.00000 0.00000 6.95652
v  8.00000 0.00000 4.17391
v  8.00000 0.00000 1.39130
v  8.00000 0.00000 -1.39130
v  8.00000 0.00000 -4.17391
v  8.00000 0.00000 -6.95652
v  8.00000 0.00000 -9.73913
v  8.00000 0.00000 -12.52174
v  8.00000 0.00000 -15.30435
v  8.00000 0.00000 -18.08696
v  8.00000 0.00000 -20.86956
v  8.00000 0.00000 -23.65218
v  8.00000 0.00000 -26.43478
v  8.00000 0.00000 -29.21739
v  -8.00000 0.00000 -29.21739
v  -8.00000 0.00000 -26.43478
v  -8.00000 0.00000 -23.65217
v  -8.00000 0.00000 -20.86957
v  -8.00000 0.00000 -18.08696
v  -8.00000 0.00000 -15.30435
v  -8.00000 0.00000 -12.52174
v  -8.00000 0.00000 -9.73913
v  -8.00000 0.00000 -6.95652
v  -8.00000 0.00000 -4.17391
v  -8.00000 0.00000 -1.39130
v  -8.00000 0.00000 1.39130
v  -8.00000 0.00000 4.17391
v  -8.00000 0.00000 6.95652
v  -8.00000 0.00000 9.73913
v  -8.00000 0.00000 12.52174
v  -8.00000 0.00000 15.30435
v  -8.00000 0.00000 18.08696
v  -8.00000 0.00000 20.86956
v  -8.00000 0.00000 23.65218
v  -8.00000 0.00000 26.43478
v  -8.00000 0.00000 29.21739
v  -5.00000 0.00000 29.21739
v  -5.00000 0.00000 26.43478
v  -5.00000 0.00000 23.65217
v  -5.00000 0.00000 20.86957
v  -5.00000 0.00000 18.08696
v  -5.00000 0.00000 15.30435
v  -5.00000 0.00000 12.52174
v  -5.00000 0.00000 9.73913
v  -5.00000 0.00000 6.95652
v  -5.00000 0.00000 4.17391
v  -5.00000 0.00000 1.39130
v  -5.00000 0.00000 -1.39130
v  -5.00000 0.00000 -4.17391
v  -5.00000 0.00000 -6.95652
v  -5.00000 0.00000 -9.73913
v  -5.00000 0.00000 -12.52174
v  -5.00000 0.00000 -15.30435
v  -5.00000 0.00000 -18.08696
v  -5.00000 0.00000 -20.86956
v  -5.00000 0.00000 -23.65218
v  -5.00000 0.00000 -26.43478
v  -5.00000 -0.00000 -29.21739
v  0.00000 0.00000 29.21739
v  0.00000 0.00000 26.43478
v  0.00000 0.00000 23.65217
v  0.00000 0.00000 20.86957
v  0.00000 0.00000 18.08696
v  0.00000 0.00000 15.30435
v  0.00000 0.00000 12.52174
v  0.00000 0.00000 9.73913
v  0.00000 0.00000 6.95652
v  0.00000 0.00000 4.17391
v  0.00000 0.00000 1.39130
v  0.00000 0.00000 -1.39130
v  0.00000 0.00000 -4.17391
v  0.00000 0.00000 -6.95652
v  0.00000 0.00000 -9.73913
v  0.00000 0.00000 -12.52174
v  0.00000 0.00000 -15.30435
v  0.00000 0.00000 -18.08696
v  0.00000 0.00000 -20.86956
v  0.00000 0.00000 -23.65218
v  0.00000 0.00000 -26.43478
v  0.00000 0.00000 -29.21739
v  9.00000 -1.05478 29.21739
v  9.00000 -1.05457 26.43478
v  9.00000 -1.05435 23.65217
v  9.00000 -1.05413 20.86957
v  9.00000 -1.05391 18.08696
v  9.00000 -1.05370 15.30435
v  9.00000 -1.05348 12.52174
v  9.00000 -1.05326 9.73913
v  9.00000 -1.05304 6.95652
v  9.00000 -1.05283 4.17391
v  9.00000 -1.05261 1.39130
v  9.00000 -1.05239 -1.39130
v  9.00000 -1.05217 -4.17391
v  9.00000 -1.05196 -6.95652
v  9.00000 -1.05174 -9.73913
v  9.00000 -1.05152 -12.52174
v  9.00000 -1.05130 -15.30435
v  9.00000 -1.05109 -18.08696
v  9.00000 -1.05087 -20.86956
v  9.00000 -1.05065 -23.65218
v  9.00000 -1.05043 -26.43478
v  9.00000 -1.05022 -29.21739
v  -9.00000 -1.05022 -29.21739
v  -9.00000 -1.05043 -26.43478
v  -9.00000 -1.05065 -23.65217
v  -9.00000 -1.05087 -20.86957
v  -9.00000 -1.05109 -18.08696
v  -9.00000 -1.05130 -15.30435
v  -9.00000 -1.05152 -12.52174
v  -9.00000 -1.05174 -9.73913
v  -9.00000 -1.05196 -6.95652
v  -9.00000 -1.05217 -4.17391
v  -9.00000 -1.05239 -1.39130
v  -9.00000 -1.05261 1.39130
v  -9.00000 -1.05283 4.17391
v  -9.00000 -1.05304 6.95652
v  -9.00000 -1.05326 9.73913
v  -9.00000 -1.05348 12.52174
v  -9.00000 -1.05370 15.30435
v  -9.00000 -1.05391 18.08696
v  -9.00000 -1.05413 20.86956
v  -9.00000 -1.05435 23.65218
v  -9.00000 -1.05457 26.43478
v  -9.00000 -1.05478 29.21739
# 168 vertices

vn 0.00000 1.00000 -0.00000
vn -0.00000 1.00000 -0.00000
vn 0.72492 0.68883 -0.00000
vn 0.72499 0.68876 0.00005
vn -0.72492 0.68883 0.00005
vn -0.72499 0.68876 -0.00000
vn 0.72414 0.68966 -0.00000
vn 0.72421 0.68958 0.00005
vn 0.72421 0.68958 -0.00000
vn 0.72428 0.68951 0.00005
vn 0.72428 0.68951 -0.00000
vn 0.72435 0.68943 0.00005
vn 0.72435 0.68943 -0.00000
vn 0.72442 0.68936 0.00005
vn 0.72442 0.68936 -0.00000
vn 0.72449 0.68928 0.00005
vn 0.72449 0.68928 -0.00000
vn 0.72457 0.68921 0.00005
vn 0.72457 0.68921 -0.00000
vn 0.72464 0.68913 0.00005
vn 0.72464 0.68913 -0.00000
vn 0.72471 0.68906 0.00005
vn 0.72471 0.68906 -0.00000
vn 0.72478 0.68898 0.00005
vn 0.72478 0.68898 -0.00000
vn 0.72485 0.68891 0.00005
vn 0.72485 0.68891 -0.00000
vn 0.72492 0.68883 0.00005
vn 0.72577 0.68794 0.00005
vn 0.72570 0.68801 -0.00000
vn 0.72570 0.68801 0.00005
vn 0.72563 0.68808 -0.00000
vn 0.72563 0.68808 0.00005
vn 0.72556 0.68816 -0.00000
vn 0.72556 0.68816 0.00005
vn 0.72549 0.68823 -0.00000
vn 0.72549 0.68823 0.00005
vn 0.72542 0.68831 -0.00000
vn 0.72542 0.68831 0.00005
vn 0.72535 0.68838 -0.00000
vn 0.72535 0.68838 0.00005
vn 0.72528 0.68846 -0.00000
vn 0.72528 0.68846 0.00005
vn 0.72520 0.68853 -0.00000
vn 0.72520 0.68853 0.00005
vn 0.72513 0.68861 -0.00000
vn 0.72513 0.68861 0.00005
vn 0.72506 0.68868 -0.00000
vn 0.72506 0.68868 0.00005
vn 0.72499 0.68876 -0.00000
vn -0.72414 0.68965 0.00005
vn -0.72421 0.68958 -0.00000
vn -0.72421 0.68958 0.00005
vn -0.72428 0.68950 -0.00000
vn -0.72428 0.68950 0.00005
vn -0.72435 0.68943 -0.00000
vn -0.72435 0.68943 0.00005
vn -0.72442 0.68935 -0.00000
vn -0.72442 0.68935 0.00005
vn -0.72450 0.68928 -0.00000
vn -0.72450 0.68928 0.00005
vn -0.72457 0.68921 -0.00000
vn -0.72457 0.68921 0.00005
vn -0.72464 0.68913 -0.00000
vn -0.72464 0.68913 0.00005
vn -0.72471 0.68906 -0.00000
vn -0.72471 0.68906 0.00005
vn -0.72478 0.68898 -0.00000
vn -0.72478 0.68898 0.00005
vn -0.72485 0.68891 -0.00000
vn -0.72485 0.68891 0.00005
vn -0.72492 0.68883 -0.00000
vn -0.72577 0.68793 -0.00000
vn -0.72570 0.68801 0.00005
vn -0.72570 0.68801 -0.00000
vn -0.72563 0.68808 0.00005
vn -0.72563 0.68808 -0.00000
vn -0.72556 0.68816 0.00005
vn -0.72556 0.68816 -0.00000
vn -0.72549 0.68823 0.00005
vn -0.72549 0.68823 -0.00000
vn -0.72542 0.68831 0.00005
vn -0.72542 0.68831 -0.00000
vn -0.72535 0.68838 0.00005
vn -0.72535 0.68838 -0.00000
vn -0.72528 0.68846 0.00005
vn -0.72528 0.68846 -0.00000
vn -0.72521 0.68853 0.00005
vn -0.72521 0.68853 -0.00000
vn -0.72513 0.68861 0.00005
vn -0.72513 0.68861 -0.00000
vn -0.72506 0.68868 0.00005
vn -0.72506 0.68868 -0.00000
vn -0.72499 0.68876 0.00005
# 94 vertex normals

vt 0.61209 0.67935 0.00000
vt 0.73913 0.73913 0.00000
vt 0.76087 0.76087 0.00000
vt 0.62228 0.69565 0.00000
vt 0.26087 0.73913 0.00000
vt 0.44837 0.73913 0.00000
vt 0.42663 0.76087 0.00000
vt 0.23913 0.76087 0.00000
vt 0.50000 0.52174 0.00000
vt 0.18750 0.39130 0.00000
vt 0.18750 0.35870 0.00000
vt 0.50000 0.47826 0.00000
vt 0.81250 0.35870 0.00000
vt 0.81250 0.39130 0.00000
vt 1.00000 0.52174 0.00000
vt 1.00000 0.47826 0.00000
vt 0.00000 0.52174 0.00000
vt 0.00000 0.47826 0.00000
vt 0.50000 0.50000 0.00000
vt 0.52174 0.52174 0.00000
vt 0.51019 0.51630 0.00000
vt 0.54348 0.54348 0.00000
vt 0.52038 0.53261 0.00000
vt 0.56522 0.56522 0.00000
vt 0.53057 0.54891 0.00000
vt 0.58696 0.58696 0.00000
vt 0.54076 0.56522 0.00000
vt 0.60870 0.60870 0.00000
vt 0.55095 0.58152 0.00000
vt 0.63043 0.63043 0.00000
vt 0.56114 0.59783 0.00000
vt 0.65217 0.65217 0.00000
vt 0.57133 0.61413 0.00000
vt 0.67391 0.67391 0.00000
vt 0.58152 0.63043 0.00000
vt 0.69565 0.69565 0.00000
vt 0.59171 0.64674 0.00000
vt 0.71739 0.71739 0.00000
vt 0.60190 0.66304 0.00000
vt 1.00000 1.00000 0.00000
vt 0.73438 0.87500 0.00000
vt 0.72418 0.85870 0.00000
vt 0.97826 0.97826 0.00000
vt 0.71399 0.84239 0.00000
vt 0.95652 0.95652 0.00000
vt 0.70380 0.82609 0.00000
vt 0.93478 0.93478 0.00000
vt 0.69361 0.80978 0.00000
vt 0.91304 0.91304 0.00000
vt 0.68342 0.79348 0.00000
vt 0.89130 0.89130 0.00000
vt 0.67323 0.77717 0.00000
vt 0.86957 0.86957 0.00000
vt 0.66304 0.76087 0.00000
vt 0.84783 0.84783 0.00000
vt 0.65285 0.74457 0.00000
vt 0.82609 0.82609 0.00000
vt 0.64266 0.72826 0.00000
vt 0.80435 0.80435 0.00000
vt 0.63247 0.71196 0.00000
vt 0.78261 0.78261 0.00000
vt 0.68750 0.50000 0.00000
vt 0.66576 0.52174 0.00000
vt 0.47826 0.52174 0.00000
vt 0.64402 0.54348 0.00000
vt 0.45652 0.54348 0.00000
vt 0.62228 0.56522 0.00000
vt 0.43478 0.56522 0.00000
vt 0.60054 0.58696 0.00000
vt 0.41304 0.58696 0.00000
vt 0.57880 0.60870 0.00000
vt 0.39130 0.60870 0.00000
vt 0.55707 0.63043 0.00000
vt 0.36957 0.63043 0.00000
vt 0.53533 0.65217 0.00000
vt 0.34783 0.65217 0.00000
vt 0.51359 0.67391 0.00000
vt 0.32609 0.67391 0.00000
vt 0.49185 0.69565 0.00000
vt 0.30435 0.69565 0.00000
vt 0.47011 0.71739 0.00000
vt 0.28261 0.71739 0.00000
vt 0.18750 1.00000 0.00000
vt 0.00000 1.00000 0.00000
vt 0.02174 0.97826 0.00000
vt 0.20924 0.97826 0.00000
vt 0.04348 0.95652 0.00000
vt 0.23098 0.95652 0.00000
vt 0.06522 0.93478 0.00000
vt 0.25272 0.93478 0.00000
vt 0.08696 0.91304 0.00000
vt 0.27446 0.91304 0.00000
vt 0.10870 0.89130 0.00000
vt 0.29620 0.89130 0.00000
vt 0.13043 0.86957 0.00000
vt 0.31793 0.86957 0.00000
vt 0.15217 0.84783 0.00000
vt 0.33967 0.84783 0.00000
vt 0.17391 0.82609 0.00000
vt 0.36141 0.82609 0.00000
vt 0.19565 0.80435 0.00000
vt 0.38315 0.80435 0.00000
vt 0.21739 0.78261 0.00000
vt 0.40489 0.78261 0.00000
vt 0.50000 1.00000 0.00000
vt 0.18750 0.75000 0.00000
vt 0.18750 0.71739 0.00000
vt 0.50000 0.95652 0.00000
vt 0.18750 0.68478 0.00000
vt 0.50000 0.91304 0.00000
vt 0.18750 0.65217 0.00000
vt 0.50000 0.86957 0.00000
vt 0.18750 0.61957 0.00000
vt 0.50000 0.82609 0.00000
vt 0.18750 0.58696 0.00000
vt 0.50000 0.78261 0.00000
vt 0.18750 0.55435 0.00000
vt 0.50000 0.73913 0.00000
vt 0.18750 0.52174 0.00000
vt 0.50000 0.69565 0.00000
vt 0.18750 0.48913 0.00000
vt 0.50000 0.65217 0.00000
vt 0.18750 0.45652 0.00000
vt 0.50000 0.60870 0.00000
vt 0.18750 0.42391 0.00000
vt 0.50000 0.56522 0.00000
vt 0.18750 0.00000 0.00000
vt 0.50000 0.00000 0.00000
vt 0.50000 0.04348 0.00000
vt 0.18750 0.03261 0.00000
vt 0.50000 0.08696 0.00000
vt 0.18750 0.06522 0.00000
vt 0.50000 0.13043 0.00000
vt 0.18750 0.09783 0.00000
vt 0.50000 0.17391 0.00000
vt 0.18750 0.13043 0.00000
vt 0.50000 0.21739 0.00000
vt 0.18750 0.16304 0.00000
vt 0.50000 0.26087 0.00000
vt 0.18750 0.19565 0.00000
vt 0.50000 0.30435 0.00000
vt 0.18750 0.22826 0.00000
vt 0.50000 0.34783 0.00000
vt 0.18750 0.26087 0.00000
vt 0.50000 0.39130 0.00000
vt 0.18750 0.29348 0.00000
vt 0.50000 0.43478 0.00000
vt 0.18750 0.32609 0.00000
vt 0.81250 0.00000 0.00000
vt 0.81250 0.03261 0.00000
vt 0.81250 0.06522 0.00000
vt 0.81250 0.09783 0.00000
vt 0.81250 0.13043 0.00000
vt 0.81250 0.16304 0.00000
vt 0.81250 0.19565 0.00000
vt 0.81250 0.22826 0.00000
vt 0.81250 0.26087 0.00000
vt 0.81250 0.29348 0.00000
vt 0.81250 0.32609 0.00000
vt 0.81250 0.75000 0.00000
vt 0.81250 0.71739 0.00000
vt 0.81250 0.68478 0.00000
vt 0.81250 0.65217 0.00000
vt 0.81250 0.61957 0.00000
vt 0.81250 0.58696 0.00000
vt 0.81250 0.55435 0.00000
vt 0.81250 0.52174 0.00000
vt 0.81250 0.48913 0.00000
vt 0.81250 0.45652 0.00000
vt 0.81250 0.42391 0.00000
vt 1.00000 0.95652 0.00000
vt 1.00000 0.91304 0.00000
vt 1.00000 0.86957 0.00000
vt 1.00000 0.82609 0.00000
vt 1.00000 0.78261 0.00000
vt 1.00000 0.73913 0.00000
vt 1.00000 0.69565 0.00000
vt 1.00000 0.65217 0.00000
vt 1.00000 0.60870 0.00000
vt 1.00000 0.56522 0.00000
vt 1.00000 0.00000 0.00000
vt 1.00000 0.04348 0.00000
vt 1.00000 0.08696 0.00000
vt 1.00000 0.13043 0.00000
vt 1.00000 0.17391 0.00000
vt 1.00000 0.21739 0.00000
vt 1.00000 0.26087 0.00000
vt 1.00000 0.30435 0.00000
vt 1.00000 0.34783 0.00000
vt 1.00000 0.39130 0.00000
vt 1.00000 0.43478 0.00000
vt 0.00000 0.95652 0.00000
vt 0.00000 0.91304 0.00000
vt 0.00000 0.86957 0.00000
vt 0.00000 0.82609 0.00000
vt 0.00000 0.78261 0.00000
vt 0.00000 0.73913 0.00000
vt 0.00000 0.69565 0.00000
vt 0.00000 0.65217 0.00000
vt 0.00000 0.60870 0.00000
vt 0.00000 0.56522 0.00000
vt 0.00000 0.00000 0.00000
vt 0.00000 0.04348 0.00000
vt 0.00000 0.08696 0.00000
vt 0.00000 0.13043 0.00000
vt 0.00000 0.17391 0.00000
vt 0.00000 0.21739 0.00000
vt 0.00000 0.26087 0.00000
vt 0.00000 0.30435 0.00000
vt 0.00000 0.34783 0.00000
vt 0.00000 0.39130 0.00000
vt 0.00000 0.43478 0.00000
# 212 texture coords

g Plane001
usemtl wire_115115115
f 26/1/1 47/2/1 48/3/1 
f 48/3/1 25/4/1 26/1/1 
f 70/5/2 91/6/2 92/7/2 
f 92/7/2 69/8/2 70/5/2 
f 114/9/1 92/10/1 91/11/1 
f 91/11/1 113/12/1 114/9/1 
f 113/12/1 26/13/2 25/14/2 
f 25/14/2 114/9/1 113/12/1 
f 136/15/3 48/3/3 47/2/3 
f 47/2/4 135/16/4 136/15/4 
f 69/8/5 157/17/5 158/18/5 
f 158/18/6 70/5/6 69/8/6 
f 4/19/1 7/19/1 37/20/1 
f 37/20/1 36/21/1 4/19/1 
f 36/21/1 37/20/1 38/22/1 
f 38/22/1 35/23/1 36/21/1 
f 35/23/1 38/22/1 39/24/1 
f 39/24/1 34/25/1 35/23/1 
f 34/25/1 39/24/1 40/26/1 
f 40/26/1 33/27/1 34/25/1 
f 33/27/1 40/26/1 41/28/1 
f 41/28/1 32/29/1 33/27/1 
f 32/29/1 41/28/1 42/30/1 
f 42/30/1 31/31/1 32/29/1 
f 31/31/1 42/30/1 43/32/1 
f 43/32/1 30/33/1 31/31/1 
f 30/33/1 43/32/1 44/34/1 
f 44/34/1 29/35/1 30/33/1 
f 29/35/1 44/34/1 45/36/1 
f 45/36/1 28/37/1 29/35/1 
f 28/37/1 45/36/1 46/38/1 
f 46/38/1 27/39/1 28/37/1 
f 27/39/1 46/38/1 47/2/1 
f 47/2/1 26/1/1 27/39/1 
f 2/40/2 3/41/2 15/42/2 
f 15/42/2 58/43/2 2/40/2 
f 58/43/2 15/42/2 16/44/2 
f 16/44/2 57/45/2 58/43/2 
f 57/45/2 16/44/2 17/46/2 
f 17/46/1 56/47/1 57/45/1 
f 56/47/1 17/46/1 18/48/1 
f 18/48/1 55/49/1 56/47/1 
f 55/49/1 18/48/1 19/50/1 
f 19/50/1 54/51/1 55/49/1 
f 54/51/1 19/50/1 20/52/1 
f 20/52/1 53/53/1 54/51/1 
f 53/53/1 20/52/1 21/54/1 
f 21/54/1 52/55/1 53/53/1 
f 52/55/1 21/54/1 22/56/1 
f 22/56/1 51/57/1 52/55/1 
f 51/57/1 22/56/1 23/58/1 
f 23/58/1 50/59/1 51/57/1 
f 50/59/1 23/58/1 24/60/1 
f 24/60/1 49/61/1 50/59/1 
f 49/61/1 24/60/1 25/4/1 
f 25/4/1 48/3/1 49/61/1 
f 8/19/2 5/62/2 81/63/2 
f 81/63/2 80/64/2 8/19/2 
f 80/64/2 81/63/2 82/65/2 
f 82/65/2 79/66/2 80/64/2 
f 79/66/2 82/65/2 83/67/2 
f 83/67/2 78/68/2 79/66/2 
f 78/68/2 83/67/2 84/69/2 
f 84/69/2 77/70/2 78/68/2 
f 77/70/2 84/69/2 85/71/2 
f 85/71/2 76/72/2 77/70/2 
f 76/72/2 85/71/2 86/73/2 
f 86/73/2 75/74/2 76/72/2 
f 75/74/2 86/73/2 87/75/2 
f 87/75/2 74/76/2 75/74/2 
f 74/76/2 87/75/2 88/77/2 
f 88/77/2 73/78/2 74/76/2 
f 73/78/2 88/77/2 89/79/2 
f 89/79/2 72/80/2 73/78/2 
f 72/80/2 89/79/2 90/81/2 
f 90/81/2 71/82/2 72/80/2 
f 71/82/2 90/81/2 91/6/2 
f 91/6/2 70/5/2 71/82/2 
f 6/83/1 1/84/1 59/85/1 
f 59/85/1 102/86/1 6/83/1 
f 102/86/1 59/85/1 60/87/1 
f 60/87/2 101/88/2 102/86/2 
f 101/88/2 60/87/2 61/89/2 
f 61/89/2 100/90/2 101/88/2 
f 100/90/2 61/89/2 62/91/2 
f 62/91/2 99/92/2 100/90/2 
f 99/92/2 62/91/2 63/93/2 
f 63/93/2 98/94/2 99/92/2 
f 98/94/2 63/93/2 64/95/2 
f 64/95/2 97/96/2 98/94/2 
f 97/96/2 64/95/2 65/97/2 
f 65/97/2 96/98/2 97/96/2 
f 96/98/2 65/97/2 66/99/2 
f 66/99/2 95/100/2 96/98/2 
f 95/100/2 66/99/2 67/101/2 
f 67/101/2 94/102/2 95/100/2 
f 94/102/2 67/101/2 68/103/2 
f 68/103/2 93/104/2 94/102/2 
f 93/104/2 68/103/2 69/8/2 
f 69/8/2 92/7/2 93/104/2 
f 9/105/1 6/106/2 102/107/2 
f 102/107/2 124/108/1 9/105/1 
f 124/108/1 102/107/2 101/109/2 
f 101/109/2 123/110/1 124/108/1 
f 123/110/1 101/109/2 100/111/1 
f 100/111/1 122/112/1 123/110/1 
f 122/112/1 100/111/1 99/113/1 
f 99/113/1 121/114/1 122/112/1 
f 121/114/1 99/113/1 98/115/1 
f 98/115/1 120/116/1 121/114/1 
f 120/116/1 98/115/1 97/117/1 
f 97/117/1 119/118/1 120/116/1 
f 119/118/1 97/117/1 96/119/1 
f 96/119/1 118/120/1 119/118/1 
f 118/120/1 96/119/1 95/121/1 
f 95/121/1 117/122/1 118/120/1 
f 117/122/1 95/121/1 94/123/1 
f 94/123/1 116/124/1 117/122/1 
f 116/124/1 94/123/1 93/125/1 
f 93/125/1 115/126/1 116/124/1 
f 115/126/1 93/125/1 92/10/1 
f 92/10/1 114/9/1 115/126/1 
f 5/127/1 10/128/1 103/129/1 
f 103/129/1 81/130/1 5/127/1 
f 81/130/1 103/129/1 104/131/1 
f 104/131/1 82/132/1 81/130/1 
f 82/132/1 104/131/1 105/133/1 
f 105/133/1 83/134/1 82/132/1 
f 83/134/1 105/133/1 106/135/1 
f 106/135/1 84/136/1 83/134/1 
f 84/136/1 106/135/1 107/137/1 
f 107/137/1 85/138/1 84/136/1 
f 85/138/1 107/137/1 108/139/1 
f 108/139/1 86/140/1 85/138/1 
f 86/140/1 108/139/1 109/141/1 
f 109/141/1 87/142/1 86/140/1 
f 87/142/1 109/141/1 110/143/1 
f 110/143/1 88/144/1 87/142/1 
f 88/144/1 110/143/1 111/145/1 
f 111/145/1 89/146/1 88/144/1 
f 89/146/1 111/145/1 112/147/1 
f 112/147/1 90/148/1 89/146/1 
f 90/148/1 112/147/1 113/12/1 
f 113/12/1 91/11/1 90/148/1 
f 10/128/1 4/149/2 36/150/2 
f 36/150/2 103/129/1 10/128/1 
f 103/129/1 36/150/2 35/151/2 
f 35/151/2 104/131/1 103/129/1 
f 104/131/1 35/151/2 34/152/2 
f 34/152/2 105/133/1 104/131/1 
f 105/133/1 34/152/2 33/153/2 
f 33/153/2 106/135/1 105/133/1 
f 106/135/1 33/153/2 32/154/2 
f 32/154/2 107/137/1 106/135/1 
f 107/137/1 32/154/2 31/155/2 
f 31/155/2 108/139/1 107/137/1 
f 108/139/1 31/155/2 30/156/2 
f 30/156/2 109/141/1 108/139/1 
f 109/141/1 30/156/2 29/157/2 
f 29/157/2 110/143/1 109/141/1 
f 110/143/1 29/157/2 28/158/2 
f 28/158/2 111/145/1 110/143/1 
f 111/145/1 28/158/2 27/159/2 
f 27/159/2 112/147/1 111/145/1 
f 112/147/1 27/159/2 26/13/2 
f 26/13/2 113/12/1 112/147/1 
f 3/160/1 9/105/1 124/108/1 
f 124/108/1 15/161/1 3/160/1 
f 15/161/1 124/108/1 123/110/1 
f 123/110/1 16/162/2 15/161/1 
f 16/162/2 123/110/1 122/112/1 
f 122/112/1 17/163/2 16/162/2 
f 17/163/2 122/112/1 121/114/1 
f 121/114/1 18/164/2 17/163/2 
f 18/164/2 121/114/1 120/116/1 
f 120/116/1 19/165/2 18/164/2 
f 19/165/2 120/116/1 119/118/1 
f 119/118/1 20/166/2 19/165/2 
f 20/166/2 119/118/1 118/120/1 
f 118/120/1 21/167/2 20/166/2 
f 21/167/2 118/120/1 117/122/1 
f 117/122/1 22/168/2 21/167/2 
f 22/168/2 117/122/1 116/124/1 
f 116/124/1 23/169/2 22/168/2 
f 23/169/2 116/124/1 115/126/1 
f 115/126/1 24/170/2 23/169/2 
f 24/170/2 115/126/1 114/9/1 
f 114/9/1 25/14/2 24/170/2 
f 13/40/7 2/40/7 58/43/7 
f 58/43/8 146/171/8 13/40/8 
f 146/171/9 58/43/9 57/45/9 
f 57/45/10 145/172/10 146/171/10 
f 145/172/11 57/45/11 56/47/11 
f 56/47/12 144/173/12 145/172/12 
f 144/173/13 56/47/13 55/49/13 
f 55/49/14 143/174/14 144/173/14 
f 143/174/15 55/49/15 54/51/15 
f 54/51/16 142/175/16 143/174/16 
f 142/175/17 54/51/17 53/53/17 
f 53/53/18 141/176/18 142/175/18 
f 141/176/19 53/53/19 52/55/19 
f 52/55/20 140/177/20 141/176/20 
f 140/177/21 52/55/21 51/57/21 
f 51/57/22 139/178/22 140/177/22 
f 139/178/23 51/57/23 50/59/23 
f 50/59/24 138/179/24 139/178/24 
f 138/179/25 50/59/25 49/61/25 
f 49/61/26 137/180/26 138/179/26 
f 137/180/27 49/61/27 48/3/27 
f 48/3/28 136/15/28 137/180/28 
f 7/19/29 11/181/29 125/182/29 
f 125/182/30 37/20/30 7/19/30 
f 37/20/31 125/182/31 126/183/31 
f 126/183/32 38/22/32 37/20/32 
f 38/22/33 126/183/33 127/184/33 
f 127/184/34 39/24/34 38/22/34 
f 39/24/35 127/184/35 128/185/35 
f 128/185/36 40/26/36 39/24/36 
f 40/26/37 128/185/37 129/186/37 
f 129/186/38 41/28/38 40/26/38 
f 41/28/39 129/186/39 130/187/39 
f 130/187/40 42/30/40 41/28/40 
f 42/30/41 130/187/41 131/188/41 
f 131/188/42 43/32/42 42/30/42 
f 43/32/43 131/188/43 132/189/43 
f 132/189/44 44/34/44 43/32/44 
f 44/34/45 132/189/45 133/190/45 
f 133/190/46 45/36/46 44/34/46 
f 45/36/47 133/190/47 134/191/47 
f 134/191/48 46/38/48 45/36/48 
f 46/38/49 134/191/49 135/16/49 
f 135/16/50 47/2/50 46/38/50 
f 1/84/51 14/84/51 147/192/51 
f 147/192/52 59/85/52 1/84/52 
f 59/85/53 147/192/53 148/193/53 
f 148/193/54 60/87/54 59/85/54 
f 60/87/55 148/193/55 149/194/55 
f 149/194/56 61/89/56 60/87/56 
f 61/89/57 149/194/57 150/195/57 
f 150/195/58 62/91/58 61/89/58 
f 62/91/59 150/195/59 151/196/59 
f 151/196/60 63/93/60 62/91/60 
f 63/93/61 151/196/61 152/197/61 
f 152/197/62 64/95/62 63/93/62 
f 64/95/63 152/197/63 153/198/63 
f 153/198/64 65/97/64 64/95/64 
f 65/97/65 153/198/65 154/199/65 
f 154/199/66 66/99/66 65/97/66 
f 66/99/67 154/199/67 155/200/67 
f 155/200/68 67/101/68 66/99/68 
f 67/101/69 155/200/69 156/201/69 
f 156/201/70 68/103/70 67/101/70 
f 68/103/71 156/201/71 157/17/71 
f 157/17/72 69/8/72 68/103/72 
f 12/202/73 8/19/73 80/64/73 
f 80/64/74 168/203/74 12/202/74 
f 168/203/75 80/64/75 79/66/75 
f 79/66/76 167/204/76 168/203/76 
f 167/204/77 79/66/77 78/68/77 
f 78/68/78 166/205/78 167/204/78 
f 166/205/79 78/68/79 77/70/79 
f 77/70/80 165/206/80 166/205/80 
f 165/206/81 77/70/81 76/72/81 
f 76/72/82 164/207/82 165/206/82 
f 164/207/83 76/72/83 75/74/83 
f 75/74/84 163/208/84 164/207/84 
f 163/208/85 75/74/85 74/76/85 
f 74/76/86 162/209/86 163/208/86 
f 162/209/87 74/76/87 73/78/87 
f 73/78/88 161/210/88 162/209/88 
f 161/210/89 73/78/89 72/80/89 
f 72/80/90 160/211/90 161/210/90 
f 160/211/91 72/80/91 71/82/91 
f 71/82/92 159/212/92 160/211/92 
f 159/212/93 71/82/93 70/5/93 
f 70/5/94 158/18/94 159/212/94 
# 276 faces

