# 3ds Max Wavefront OBJ Exporter v0.97b - (c)2007 guruware
# File Created: 31.08.2015 23:46:06

mtllib Grnd_NodeLOD.mtl

#
# object _001
#

#
# object Plane006
#

v  -5.00000 -0.30000 32.00000
v  5.00000 -0.30000 32.00000
v  -5.00000 -0.30000 -32.00000
v  5.00000 -0.30000 -32.00000
v  -5.00000 -0.30000 -0.00000
v  5.00000 -0.30000 -0.00000
v  3.00000 -0.30000 32.00000
v  3.00000 -0.30000 -0.00000
v  -3.00000 -0.30000 32.00000
v  -3.00000 -0.30000 -0.00000
v  0.00000 -0.30000 32.00000
v  0.00000 -0.30000 -0.00000
# 12 vertices

vn 0.00000 1.00000 -0.00000
# 1 vertex normals

vt 0.00000 1.00000 0.00000
vt 0.00000 0.50000 0.00000
vt 0.20000 0.50000 0.00000
vt 0.00000 0.00000 0.00000
vt 0.20000 0.00000 0.00000
vt 1.00000 0.00000 0.00000
vt 1.00000 0.50000 0.00000
vt 0.80000 0.50000 0.00000
vt 0.80000 0.00000 0.00000
vt 0.50000 0.00000 0.00000
vt 0.50000 0.50000 0.00000
vt 1.00000 1.00000 0.00000
# 12 texture coords

g Plane006
usemtl wire_184228153
f 3/1/1 5/2/1 10/3/1 
f 1/4/1 9/5/1 10/3/1 
f 10/3/1 5/2/1 1/4/1 
f 2/6/1 6/7/1 8/8/1 
f 8/8/1 7/9/1 2/6/1 
f 11/10/1 12/11/1 10/3/1 
f 10/3/1 9/5/1 11/10/1 
f 8/8/1 6/7/1 4/12/1 
f 7/9/1 8/8/1 12/11/1 
f 12/11/1 11/10/1 7/9/1 
f 4/12/1 12/11/1 8/8/1 
f 12/11/1 3/1/1 10/3/1 
f 4/12/1 3/1/1 12/11/1 
# 13 faces

