# 3ds Max Wavefront OBJ Exporter v0.97b - (c)2007 guruware
# File Created: 27.08.2015 03:26:16

mtllib 1L_ow_sidewalks_6m_drvway.mtl

#
# object Plane001
#

v  -5.00000 0.00000 -32.00000
v  5.00000 0.00000 -32.00000
v  3.00000 -0.00000 -32.00000
v  3.00000 0.00000 32.00000
v  -3.00000 0.00000 32.00000
v  -3.00000 -0.00000 -32.00000
v  5.00000 0.00000 32.00000
v  -5.00000 0.00000 32.00000
v  5.50000 -1.05500 32.00000
v  -5.50000 -1.05500 32.00000
v  5.50000 -1.05500 -32.00000
v  -5.50000 -1.05500 -32.00000
v  3.00000 -0.30000 -32.00000
v  3.00000 -0.30000 32.00000
v  -3.00000 -0.30000 32.00000
v  -3.00000 -0.30000 -32.00000
v  0.00000 -0.30000 -32.00000
v  0.00000 -0.30000 32.00000
v  3.00000 0.00000 -29.33333
v  3.00000 0.00000 -26.66667
v  3.00000 0.00000 -24.00000
v  3.00000 0.00000 -21.33333
v  3.00000 0.00000 -18.66667
v  3.00000 0.00000 -16.00000
v  3.00000 0.00000 -13.33333
v  3.00000 0.00000 -10.66667
v  3.00000 0.00000 -8.00000
v  3.00000 0.00000 -5.33333
v  3.00000 0.00000 -2.66667
v  3.00000 0.00000 -0.00000
v  3.00000 0.00000 2.66666
v  3.00000 0.00000 5.33334
v  3.00000 0.00000 8.00000
v  3.00000 0.00000 10.66666
v  3.00000 0.00000 13.33334
v  3.00000 0.00000 16.00000
v  3.00000 0.00000 18.66666
v  3.00000 0.00000 21.33334
v  3.00000 0.00000 24.00000
v  3.00000 0.00000 26.66666
v  3.00000 0.00000 29.33334
v  5.00000 0.00000 29.33333
v  5.00000 0.00000 26.66667
v  5.00000 0.00000 24.00000
v  5.00000 0.00000 21.33333
v  5.00000 0.00000 18.66667
v  5.00000 0.00000 16.00000
v  5.00000 0.00000 13.33333
v  5.00000 0.00000 10.66667
v  5.00000 0.00000 8.00000
v  5.00000 0.00000 5.33333
v  5.00000 0.00000 2.66667
v  5.00000 0.00000 -0.00000
v  5.00000 0.00000 -2.66666
v  5.00000 0.00000 -5.33334
v  5.00000 0.00000 -8.00000
v  5.00000 0.00000 -10.66666
v  5.00000 0.00000 -13.33334
v  5.00000 0.00000 -16.00000
v  5.00000 0.00000 -18.66666
v  5.00000 0.00000 -21.33334
v  5.00000 0.00000 -24.00000
v  5.00000 0.00000 -26.66666
v  5.00000 0.00000 -29.33334
v  -5.00000 0.00000 -29.33333
v  -5.00000 0.00000 -26.66667
v  -5.00000 0.00000 -24.00000
v  -5.00000 0.00000 -21.33333
v  -5.00000 0.00000 -18.66667
v  -5.00000 0.00000 -16.00000
v  -5.00000 0.00000 -13.33333
v  -5.00000 0.00000 -10.66667
v  -5.00000 0.00000 -8.00000
v  -5.00000 0.00000 -5.33333
v  -5.00000 0.00000 -2.66667
v  -5.00000 0.00000 -0.00000
v  -5.00000 0.00000 2.66666
v  -5.00000 0.00000 5.33334
v  -5.00000 0.00000 8.00000
v  -5.00000 0.00000 10.66666
v  -5.00000 0.00000 13.33334
v  -5.00000 0.00000 16.00000
v  -5.00000 0.00000 18.66666
v  -5.00000 0.00000 21.33334
v  -5.00000 0.00000 24.00000
v  -5.00000 0.00000 26.66666
v  -5.00000 0.00000 29.33334
v  -3.00000 0.00000 29.33333
v  -3.00000 0.00000 26.66667
v  -3.00000 0.00000 24.00000
v  -3.00000 0.00000 21.33333
v  -3.00000 0.00000 18.66667
v  -3.00000 0.00000 16.00000
v  -3.00000 0.00000 13.33333
v  -3.00000 0.00000 10.66667
v  -3.00000 0.00000 8.00000
v  -3.00000 0.00000 5.33333
v  -3.00000 0.00000 2.66667
v  -3.00000 0.00000 -0.00000
v  -3.00000 0.00000 -2.66666
v  -3.00000 0.00000 -5.33334
v  -3.00000 0.00000 -8.00000
v  -3.00000 0.00000 -10.66666
v  -3.00000 0.00000 -13.33334
v  -3.00000 0.00000 -16.00000
v  -3.00000 0.00000 -18.66666
v  -3.00000 0.00000 -21.33334
v  -3.00000 0.00000 -24.00000
v  -3.00000 0.00000 -26.66666
v  -3.00000 0.00000 -29.33334
v  0.00000 -0.30000 29.33333
v  0.00000 -0.30000 26.66667
v  0.00000 -0.30000 24.00000
v  0.00000 -0.30000 21.33333
v  0.00000 -0.30000 18.66667
v  0.00000 -0.30000 16.00000
v  0.00000 -0.30000 13.33333
v  0.00000 -0.30000 10.66667
v  0.00000 -0.30000 8.00000
v  0.00000 -0.30000 5.33333
v  0.00000 -0.30000 2.66667
v  0.00000 -0.30000 -0.00000
v  0.00000 -0.30000 -2.66666
v  0.00000 -0.30000 -5.33334
v  0.00000 -0.30000 -8.00000
v  0.00000 -0.30000 -10.66666
v  0.00000 -0.30000 -13.33334
v  0.00000 -0.30000 -16.00000
v  0.00000 -0.30000 -18.66666
v  0.00000 -0.30000 -21.33334
v  0.00000 -0.30000 -24.00000
v  0.00000 -0.30000 -26.66666
v  0.00000 -0.30000 -29.33334
v  -3.00000 -0.30000 -29.33333
v  -3.00000 -0.30000 -26.66667
v  -3.00000 -0.30000 -24.00000
v  -3.00000 -0.30000 -21.33333
v  -3.00000 -0.30000 -18.66667
v  -3.00000 -0.30000 -16.00000
v  -3.00000 -0.30000 -13.33333
v  -3.00000 -0.30000 -10.66667
v  -3.00000 -0.30000 -8.00000
v  -3.00000 -0.30000 -5.33333
v  -3.00000 -0.30000 -2.66667
v  -3.00000 -0.30000 -0.00000
v  -3.00000 -0.30000 2.66666
v  -3.00000 -0.30000 5.33334
v  -3.00000 -0.30000 8.00000
v  -3.00000 -0.30000 10.66666
v  -3.00000 -0.30000 13.33334
v  -3.00000 -0.30000 16.00000
v  -3.00000 -0.30000 18.66666
v  -3.00000 -0.30000 21.33334
v  -3.00000 -0.30000 24.00000
v  -3.00000 -0.30000 26.66666
v  -3.00000 -0.30000 29.33334
v  3.00000 -0.30000 29.33333
v  3.00000 -0.30000 26.66667
v  3.00000 -0.30000 24.00000
v  3.00000 -0.30000 21.33333
v  3.00000 -0.30000 18.66667
v  3.00000 -0.30000 16.00000
v  3.00000 -0.30000 13.33333
v  3.00000 -0.30000 10.66667
v  3.00000 -0.30000 8.00000
v  3.00000 -0.30000 5.33333
v  3.00000 -0.30000 2.66667
v  3.00000 -0.30000 -0.00000
v  3.00000 -0.30000 -2.66666
v  3.00000 -0.30000 -5.33334
v  3.00000 -0.30000 -8.00000
v  3.00000 -0.30000 -10.66666
v  3.00000 -0.30000 -13.33334
v  3.00000 -0.30000 -16.00000
v  3.00000 -0.30000 -18.66666
v  3.00000 -0.30000 -21.33334
v  3.00000 -0.30000 -24.00000
v  3.00000 -0.30000 -26.66666
v  3.00000 -0.30000 -29.33334
v  5.50000 -1.05500 29.33333
v  5.50000 -1.05500 26.66667
v  5.50000 -1.05500 24.00000
v  5.50000 -1.05500 21.33333
v  5.50000 -1.05500 18.66667
v  5.50000 -1.05500 16.00000
v  5.50000 -1.05500 13.33333
v  5.50000 -1.05500 10.66667
v  5.50000 -1.05500 8.00000
v  5.50000 -1.05500 5.33333
v  5.50000 -1.05500 2.66667
v  5.50000 -1.05500 -0.00000
v  5.50000 -1.05500 -2.66666
v  5.50000 -1.05500 -5.33334
v  5.50000 -1.05500 -8.00000
v  5.50000 -1.05500 -10.66666
v  5.50000 -1.05500 -13.33334
v  5.50000 -1.05500 -16.00000
v  5.50000 -1.05500 -18.66666
v  5.50000 -1.05500 -21.33334
v  5.50000 -1.05500 -24.00000
v  5.50000 -1.05500 -26.66666
v  5.50000 -1.05500 -29.33334
v  -5.50000 -1.05500 -29.33333
v  -5.50000 -1.05500 -26.66667
v  -5.50000 -1.05500 -24.00000
v  -5.50000 -1.05500 -21.33333
v  -5.50000 -1.05500 -18.66667
v  -5.50000 -1.05500 -16.00000
v  -5.50000 -1.05500 -13.33333
v  -5.50000 -1.05500 -10.66667
v  -5.50000 -1.05500 -8.00000
v  -5.50000 -1.05500 -5.33333
v  -5.50000 -1.05500 -2.66667
v  -5.50000 -1.05500 -0.00000
v  -5.50000 -1.05500 2.66666
v  -5.50000 -1.05500 5.33334
v  -5.50000 -1.05500 8.00000
v  -5.50000 -1.05500 10.66666
v  -5.50000 -1.05500 13.33334
v  -5.50000 -1.05500 16.00000
v  -5.50000 -1.05500 18.66666
v  -5.50000 -1.05500 21.33334
v  -5.50000 -1.05500 24.00000
v  -5.50000 -1.05500 26.66666
v  -5.50000 -1.05500 29.33334
# 225 vertices

vn 0.00000 1.00000 -0.00000
vn -0.00000 1.00000 -0.00000
vn 0.90365 0.42827 -0.00000
vn -0.90365 0.42827 -0.00000
vn -1.00000 0.00000 -0.00000
vn 1.00000 0.00000 -0.00000
# 6 vertex normals

vt 0.61719 0.68750 0.00000
vt 0.75000 0.75000 0.00000
vt 0.77083 0.77083 0.00000
vt 0.62695 0.70313 0.00000
vt 0.25000 0.75000 0.00000
vt 0.43750 0.75000 0.00000
vt 0.41667 0.77083 0.00000
vt 0.22917 0.77083 0.00000
vt 0.50000 0.50000 0.00000
vt 0.18750 0.37500 0.00000
vt 0.18750 0.34375 0.00000
vt 0.50000 0.45833 0.00000
vt 0.81250 0.37500 0.00000
vt 0.81250 0.40625 0.00000
vt 0.50000 0.54167 0.00000
vt 1.00000 0.50000 0.00000
vt 0.72917 0.72917 0.00000
vt 1.00000 0.45833 0.00000
vt 0.00000 0.50000 0.00000
vt 0.00000 0.45833 0.00000
vt 0.27083 0.72917 0.00000
vt 0.81250 0.34375 0.00000
vt 0.18750 0.40625 0.00000
vt 0.52083 0.52083 0.00000
vt 0.50977 0.51563 0.00000
vt 0.54167 0.54167 0.00000
vt 0.51953 0.53125 0.00000
vt 0.56250 0.56250 0.00000
vt 0.52930 0.54688 0.00000
vt 0.58333 0.58333 0.00000
vt 0.53906 0.56250 0.00000
vt 0.60417 0.60417 0.00000
vt 0.54883 0.57813 0.00000
vt 0.62500 0.62500 0.00000
vt 0.55859 0.59375 0.00000
vt 0.64583 0.64583 0.00000
vt 0.56836 0.60938 0.00000
vt 0.66667 0.66667 0.00000
vt 0.57813 0.62500 0.00000
vt 0.68750 0.68750 0.00000
vt 0.58789 0.64063 0.00000
vt 0.70833 0.70833 0.00000
vt 0.59766 0.65625 0.00000
vt 0.60742 0.67188 0.00000
vt 1.00000 1.00000 0.00000
vt 0.73438 0.87500 0.00000
vt 0.72461 0.85938 0.00000
vt 0.97917 0.97917 0.00000
vt 0.71484 0.84375 0.00000
vt 0.95833 0.95833 0.00000
vt 0.70508 0.82813 0.00000
vt 0.93750 0.93750 0.00000
vt 0.69531 0.81250 0.00000
vt 0.91667 0.91667 0.00000
vt 0.68555 0.79688 0.00000
vt 0.89583 0.89583 0.00000
vt 0.67578 0.78125 0.00000
vt 0.87500 0.87500 0.00000
vt 0.66602 0.76563 0.00000
vt 0.85417 0.85417 0.00000
vt 0.65625 0.75000 0.00000
vt 0.83333 0.83333 0.00000
vt 0.64648 0.73438 0.00000
vt 0.81250 0.81250 0.00000
vt 0.63672 0.71875 0.00000
vt 0.79167 0.79167 0.00000
vt 0.68750 0.50000 0.00000
vt 0.66667 0.52083 0.00000
vt 0.47917 0.52083 0.00000
vt 0.64583 0.54167 0.00000
vt 0.45833 0.54167 0.00000
vt 0.62500 0.56250 0.00000
vt 0.43750 0.56250 0.00000
vt 0.60417 0.58333 0.00000
vt 0.41667 0.58333 0.00000
vt 0.58333 0.60417 0.00000
vt 0.39583 0.60417 0.00000
vt 0.56250 0.62500 0.00000
vt 0.37500 0.62500 0.00000
vt 0.54167 0.64583 0.00000
vt 0.35417 0.64583 0.00000
vt 0.52083 0.66667 0.00000
vt 0.33333 0.66667 0.00000
vt 0.50000 0.68750 0.00000
vt 0.31250 0.68750 0.00000
vt 0.47917 0.70833 0.00000
vt 0.29167 0.70833 0.00000
vt 0.45833 0.72917 0.00000
vt 0.18750 1.00000 0.00000
vt 0.00000 1.00000 0.00000
vt 0.02083 0.97917 0.00000
vt 0.20833 0.97917 0.00000
vt 0.04167 0.95833 0.00000
vt 0.22917 0.95833 0.00000
vt 0.06250 0.93750 0.00000
vt 0.25000 0.93750 0.00000
vt 0.08333 0.91667 0.00000
vt 0.27083 0.91667 0.00000
vt 0.10417 0.89583 0.00000
vt 0.29167 0.89583 0.00000
vt 0.12500 0.87500 0.00000
vt 0.31250 0.87500 0.00000
vt 0.14583 0.85417 0.00000
vt 0.33333 0.85417 0.00000
vt 0.16667 0.83333 0.00000
vt 0.35417 0.83333 0.00000
vt 0.18750 0.81250 0.00000
vt 0.37500 0.81250 0.00000
vt 0.20833 0.79167 0.00000
vt 0.39583 0.79167 0.00000
vt 0.50000 1.00000 0.00000
vt 0.18750 0.75000 0.00000
vt 0.18750 0.71875 0.00000
vt 0.50000 0.95833 0.00000
vt 0.18750 0.68750 0.00000
vt 0.50000 0.91667 0.00000
vt 0.18750 0.65625 0.00000
vt 0.50000 0.87500 0.00000
vt 0.18750 0.62500 0.00000
vt 0.50000 0.83333 0.00000
vt 0.18750 0.59375 0.00000
vt 0.50000 0.79167 0.00000
vt 0.18750 0.56250 0.00000
vt 0.50000 0.75000 0.00000
vt 0.18750 0.53125 0.00000
vt 0.50000 0.70833 0.00000
vt 0.18750 0.50000 0.00000
vt 0.50000 0.66667 0.00000
vt 0.18750 0.46875 0.00000
vt 0.50000 0.62500 0.00000
vt 0.18750 0.43750 0.00000
vt 0.50000 0.58333 0.00000
vt 0.18750 0.00000 0.00000
vt 0.50000 0.00000 0.00000
vt 0.50000 0.04167 0.00000
vt 0.18750 0.03125 0.00000
vt 0.50000 0.08333 0.00000
vt 0.18750 0.06250 0.00000
vt 0.50000 0.12500 0.00000
vt 0.18750 0.09375 0.00000
vt 0.50000 0.16667 0.00000
vt 0.18750 0.12500 0.00000
vt 0.50000 0.20833 0.00000
vt 0.18750 0.15625 0.00000
vt 0.50000 0.25000 0.00000
vt 0.18750 0.18750 0.00000
vt 0.50000 0.29167 0.00000
vt 0.18750 0.21875 0.00000
vt 0.50000 0.33333 0.00000
vt 0.18750 0.25000 0.00000
vt 0.50000 0.37500 0.00000
vt 0.18750 0.28125 0.00000
vt 0.50000 0.41667 0.00000
vt 0.18750 0.31250 0.00000
vt 0.81250 0.00000 0.00000
vt 0.81250 0.03125 0.00000
vt 0.81250 0.06250 0.00000
vt 0.81250 0.09375 0.00000
vt 0.81250 0.12500 0.00000
vt 0.81250 0.15625 0.00000
vt 0.81250 0.18750 0.00000
vt 0.81250 0.21875 0.00000
vt 0.81250 0.25000 0.00000
vt 0.81250 0.28125 0.00000
vt 0.81250 0.31250 0.00000
vt 0.81250 0.75000 0.00000
vt 0.81250 0.71875 0.00000
vt 0.81250 0.68750 0.00000
vt 0.81250 0.65625 0.00000
vt 0.81250 0.62500 0.00000
vt 0.81250 0.59375 0.00000
vt 0.81250 0.56250 0.00000
vt 0.81250 0.53125 0.00000
vt 0.81250 0.50000 0.00000
vt 0.81250 0.46875 0.00000
vt 0.81250 0.43750 0.00000
vt 1.00000 0.95833 0.00000
vt 1.00000 0.91667 0.00000
vt 1.00000 0.87500 0.00000
vt 1.00000 0.83333 0.00000
vt 1.00000 0.79167 0.00000
vt 1.00000 0.75000 0.00000
vt 1.00000 0.70833 0.00000
vt 1.00000 0.66667 0.00000
vt 1.00000 0.62500 0.00000
vt 1.00000 0.58333 0.00000
vt 1.00000 0.54167 0.00000
vt 1.00000 0.00000 0.00000
vt 1.00000 0.04167 0.00000
vt 1.00000 0.08333 0.00000
vt 1.00000 0.12500 0.00000
vt 1.00000 0.16667 0.00000
vt 1.00000 0.20833 0.00000
vt 1.00000 0.25000 0.00000
vt 1.00000 0.29167 0.00000
vt 1.00000 0.33333 0.00000
vt 1.00000 0.37500 0.00000
vt 1.00000 0.41667 0.00000
vt 0.00000 0.95833 0.00000
vt 0.00000 0.91667 0.00000
vt 0.00000 0.87500 0.00000
vt 0.00000 0.83333 0.00000
vt 0.00000 0.79167 0.00000
vt 0.00000 0.75000 0.00000
vt 0.00000 0.70833 0.00000
vt 0.00000 0.66667 0.00000
vt 0.00000 0.62500 0.00000
vt 0.00000 0.58333 0.00000
vt 0.00000 0.54167 0.00000
vt 0.00000 0.00000 0.00000
vt 0.00000 0.04167 0.00000
vt 0.00000 0.08333 0.00000
vt 0.00000 0.12500 0.00000
vt 0.00000 0.16667 0.00000
vt 0.00000 0.20833 0.00000
vt 0.00000 0.25000 0.00000
vt 0.00000 0.29167 0.00000
vt 0.00000 0.33333 0.00000
vt 0.00000 0.37500 0.00000
vt 0.00000 0.41667 0.00000
# 220 texture coords

g Plane001
usemtl wire_115115115
f 30/1/1 53/2/1 54/3/1 
f 54/3/1 29/4/1 30/1/1 
f 76/5/2 99/6/2 100/7/2 
f 100/7/2 75/8/2 76/5/2 
f 122/9/1 145/10/1 146/11/1 
f 146/11/1 121/12/1 122/9/1 
f 122/9/1 168/13/2 169/14/2 
f 169/14/2 123/15/1 122/9/1 
f 191/16/3 53/2/3 52/17/3 
f 52/17/3 190/18/3 191/16/3 
f 76/5/4 214/19/4 215/20/4 
f 215/20/4 77/21/4 76/5/4 
f 30/13/5 168/13/5 167/22/5 
f 167/22/5 31/22/5 30/13/5 
f 99/10/6 145/10/6 144/23/6 
f 144/23/6 100/23/6 99/10/6 
f 4/9/1 7/9/1 42/24/1 
f 42/24/1 41/25/1 4/9/1 
f 41/25/1 42/24/1 43/26/1 
f 43/26/1 40/27/1 41/25/1 
f 40/27/1 43/26/1 44/28/1 
f 44/28/1 39/29/1 40/27/1 
f 39/29/1 44/28/1 45/30/1 
f 45/30/1 38/31/1 39/29/1 
f 38/31/1 45/30/1 46/32/1 
f 46/32/1 37/33/1 38/31/1 
f 37/33/1 46/32/1 47/34/1 
f 47/34/1 36/35/1 37/33/1 
f 36/35/1 47/34/1 48/36/1 
f 48/36/1 35/37/1 36/35/1 
f 35/37/1 48/36/1 49/38/1 
f 49/38/1 34/39/1 35/37/1 
f 34/39/1 49/38/1 50/40/1 
f 50/40/1 33/41/1 34/39/1 
f 33/41/1 50/40/1 51/42/1 
f 51/42/1 32/43/1 33/41/1 
f 32/43/1 51/42/1 52/17/1 
f 52/17/1 31/44/1 32/43/1 
f 31/44/1 52/17/1 53/2/1 
f 53/2/1 30/1/1 31/44/1 
f 2/45/2 3/46/2 19/47/2 
f 19/47/1 64/48/1 2/45/1 
f 64/48/1 19/47/1 20/49/1 
f 20/49/1 63/50/1 64/48/1 
f 63/50/1 20/49/1 21/51/1 
f 21/51/1 62/52/1 63/50/1 
f 62/52/1 21/51/1 22/53/1 
f 22/53/1 61/54/1 62/52/1 
f 61/54/1 22/53/1 23/55/1 
f 23/55/1 60/56/1 61/54/1 
f 60/56/1 23/55/1 24/57/1 
f 24/57/1 59/58/1 60/56/1 
f 59/58/1 24/57/1 25/59/1 
f 25/59/1 58/60/1 59/58/1 
f 58/60/1 25/59/1 26/61/1 
f 26/61/1 57/62/1 58/60/1 
f 57/62/1 26/61/1 27/63/1 
f 27/63/1 56/64/1 57/62/1 
f 56/64/1 27/63/1 28/65/1 
f 28/65/1 55/66/1 56/64/1 
f 55/66/1 28/65/1 29/4/1 
f 29/4/1 54/3/1 55/66/1 
f 8/9/2 5/67/2 88/68/2 
f 88/68/2 87/69/2 8/9/2 
f 87/69/2 88/68/2 89/70/2 
f 89/70/2 86/71/2 87/69/2 
f 86/71/2 89/70/2 90/72/2 
f 90/72/2 85/73/2 86/71/2 
f 85/73/2 90/72/2 91/74/2 
f 91/74/2 84/75/2 85/73/2 
f 84/75/2 91/74/2 92/76/2 
f 92/76/2 83/77/2 84/75/2 
f 83/77/2 92/76/2 93/78/2 
f 93/78/2 82/79/2 83/77/2 
f 82/79/2 93/78/2 94/80/2 
f 94/80/2 81/81/2 82/79/2 
f 81/81/2 94/80/2 95/82/2 
f 95/82/2 80/83/2 81/81/2 
f 80/83/2 95/82/2 96/84/2 
f 96/84/2 79/85/2 80/83/2 
f 79/85/2 96/84/2 97/86/2 
f 97/86/2 78/87/2 79/85/2 
f 78/87/2 97/86/2 98/88/2 
f 98/88/2 77/21/2 78/87/2 
f 77/21/2 98/88/2 99/6/2 
f 99/6/2 76/5/2 77/21/2 
f 6/89/1 1/90/1 65/91/1 
f 65/91/2 110/92/2 6/89/2 
f 110/92/1 65/91/1 66/93/1 
f 66/93/1 109/94/1 110/92/1 
f 109/94/1 66/93/1 67/95/1 
f 67/95/2 108/96/2 109/94/2 
f 108/96/2 67/95/2 68/97/2 
f 68/97/2 107/98/2 108/96/2 
f 107/98/2 68/97/2 69/99/2 
f 69/99/2 106/100/2 107/98/2 
f 106/100/2 69/99/2 70/101/2 
f 70/101/2 105/102/2 106/100/2 
f 105/102/2 70/101/2 71/103/2 
f 71/103/2 104/104/2 105/102/2 
f 104/104/2 71/103/2 72/105/2 
f 72/105/2 103/106/2 104/104/2 
f 103/106/2 72/105/2 73/107/2 
f 73/107/2 102/108/2 103/106/2 
f 102/108/2 73/107/2 74/109/2 
f 74/109/2 101/110/2 102/108/2 
f 101/110/2 74/109/2 75/8/2 
f 75/8/2 100/7/2 101/110/2 
f 17/111/1 16/112/2 134/113/2 
f 134/113/2 133/114/1 17/111/1 
f 133/114/1 134/113/2 135/115/1 
f 135/115/1 132/116/1 133/114/1 
f 132/116/1 135/115/1 136/117/1 
f 136/117/1 131/118/1 132/116/1 
f 131/118/1 136/117/1 137/119/1 
f 137/119/1 130/120/1 131/118/1 
f 130/120/1 137/119/1 138/121/1 
f 138/121/1 129/122/1 130/120/1 
f 129/122/1 138/121/1 139/123/1 
f 139/123/1 128/124/1 129/122/1 
f 128/124/1 139/123/1 140/125/1 
f 140/125/1 127/126/1 128/124/1 
f 127/126/1 140/125/1 141/127/1 
f 141/127/1 126/128/1 127/126/1 
f 126/128/1 141/127/1 142/129/1 
f 142/129/1 125/130/1 126/128/1 
f 125/130/1 142/129/1 143/131/1 
f 143/131/1 124/132/1 125/130/1 
f 124/132/1 143/131/1 144/23/1 
f 144/23/1 123/15/1 124/132/1 
f 123/15/1 144/23/1 145/10/1 
f 145/10/1 122/9/1 123/15/1 
f 15/133/1 18/134/1 111/135/1 
f 111/135/1 156/136/1 15/133/1 
f 156/136/1 111/135/1 112/137/1 
f 112/137/1 155/138/1 156/136/1 
f 155/138/1 112/137/1 113/139/1 
f 113/139/1 154/140/1 155/138/1 
f 154/140/1 113/139/1 114/141/1 
f 114/141/1 153/142/1 154/140/1 
f 153/142/1 114/141/1 115/143/1 
f 115/143/1 152/144/1 153/142/1 
f 152/144/1 115/143/1 116/145/1 
f 116/145/1 151/146/1 152/144/1 
f 151/146/1 116/145/1 117/147/1 
f 117/147/1 150/148/1 151/146/1 
f 150/148/1 117/147/1 118/149/1 
f 118/149/1 149/150/1 150/148/1 
f 149/150/1 118/149/1 119/151/1 
f 119/151/1 148/152/1 149/150/1 
f 148/152/1 119/151/1 120/153/1 
f 120/153/1 147/154/1 148/152/1 
f 147/154/1 120/153/1 121/12/1 
f 121/12/1 146/11/1 147/154/1 
f 18/134/1 14/155/2 157/156/2 
f 157/156/2 111/135/1 18/134/1 
f 111/135/1 157/156/2 158/157/2 
f 158/157/2 112/137/1 111/135/1 
f 112/137/1 158/157/2 159/158/2 
f 159/158/2 113/139/1 112/137/1 
f 113/139/1 159/158/2 160/159/2 
f 160/159/2 114/141/1 113/139/1 
f 114/141/1 160/159/2 161/160/2 
f 161/160/2 115/143/1 114/141/1 
f 115/143/1 161/160/2 162/161/2 
f 162/161/2 116/145/1 115/143/1 
f 116/145/1 162/161/2 163/162/2 
f 163/162/2 117/147/1 116/145/1 
f 117/147/1 163/162/2 164/163/2 
f 164/163/2 118/149/1 117/147/1 
f 118/149/1 164/163/2 165/164/2 
f 165/164/2 119/151/1 118/149/1 
f 119/151/1 165/164/2 166/165/2 
f 166/165/2 120/153/1 119/151/1 
f 120/153/1 166/165/2 167/22/2 
f 167/22/2 121/12/1 120/153/1 
f 121/12/1 167/22/2 168/13/2 
f 168/13/2 122/9/1 121/12/1 
f 13/166/1 17/111/1 133/114/1 
f 133/114/1 179/167/1 13/166/1 
f 179/167/1 133/114/1 132/116/1 
f 132/116/1 178/168/2 179/167/1 
f 178/168/2 132/116/1 131/118/1 
f 131/118/1 177/169/2 178/168/2 
f 177/169/2 131/118/1 130/120/1 
f 130/120/1 176/170/2 177/169/2 
f 176/170/2 130/120/1 129/122/1 
f 129/122/1 175/171/2 176/170/2 
f 175/171/2 129/122/1 128/124/1 
f 128/124/1 174/172/2 175/171/2 
f 174/172/2 128/124/1 127/126/1 
f 127/126/1 173/173/2 174/172/2 
f 173/173/2 127/126/1 126/128/1 
f 126/128/1 172/174/2 173/173/2 
f 172/174/2 126/128/1 125/130/1 
f 125/130/1 171/175/2 172/174/2 
f 171/175/2 125/130/1 124/132/1 
f 124/132/1 170/176/2 171/175/2 
f 170/176/2 124/132/1 123/15/1 
f 123/15/1 169/14/2 170/176/2 
f 11/45/3 2/45/3 64/48/3 
f 64/48/3 202/177/3 11/45/3 
f 202/177/3 64/48/3 63/50/3 
f 63/50/3 201/178/3 202/177/3 
f 201/178/3 63/50/3 62/52/3 
f 62/52/3 200/179/3 201/178/3 
f 200/179/3 62/52/3 61/54/3 
f 61/54/3 199/180/3 200/179/3 
f 199/180/3 61/54/3 60/56/3 
f 60/56/3 198/181/3 199/180/3 
f 198/181/3 60/56/3 59/58/3 
f 59/58/3 197/182/3 198/181/3 
f 197/182/3 59/58/3 58/60/3 
f 58/60/3 196/183/3 197/182/3 
f 196/183/3 58/60/3 57/62/3 
f 57/62/3 195/184/3 196/183/3 
f 195/184/3 57/62/3 56/64/3 
f 56/64/3 194/185/3 195/184/3 
f 194/185/3 56/64/3 55/66/3 
f 55/66/3 193/186/3 194/185/3 
f 193/186/3 55/66/3 54/3/3 
f 54/3/3 192/187/3 193/186/3 
f 192/187/3 54/3/3 53/2/3 
f 53/2/3 191/16/3 192/187/3 
f 7/9/3 9/188/3 180/189/3 
f 180/189/3 42/24/3 7/9/3 
f 42/24/3 180/189/3 181/190/3 
f 181/190/3 43/26/3 42/24/3 
f 43/26/3 181/190/3 182/191/3 
f 182/191/3 44/28/3 43/26/3 
f 44/28/3 182/191/3 183/192/3 
f 183/192/3 45/30/3 44/28/3 
f 45/30/3 183/192/3 184/193/3 
f 184/193/3 46/32/3 45/30/3 
f 46/32/3 184/193/3 185/194/3 
f 185/194/3 47/34/3 46/32/3 
f 47/34/3 185/194/3 186/195/3 
f 186/195/3 48/36/3 47/34/3 
f 48/36/3 186/195/3 187/196/3 
f 187/196/3 49/38/3 48/36/3 
f 49/38/3 187/196/3 188/197/3 
f 188/197/3 50/40/3 49/38/3 
f 50/40/3 188/197/3 189/198/3 
f 189/198/3 51/42/3 50/40/3 
f 51/42/3 189/198/3 190/18/3 
f 190/18/3 52/17/3 51/42/3 
f 1/90/4 12/90/4 203/199/4 
f 203/199/4 65/91/4 1/90/4 
f 65/91/4 203/199/4 204/200/4 
f 204/200/4 66/93/4 65/91/4 
f 66/93/4 204/200/4 205/201/4 
f 205/201/4 67/95/4 66/93/4 
f 67/95/4 205/201/4 206/202/4 
f 206/202/4 68/97/4 67/95/4 
f 68/97/4 206/202/4 207/203/4 
f 207/203/4 69/99/4 68/97/4 
f 69/99/4 207/203/4 208/204/4 
f 208/204/4 70/101/4 69/99/4 
f 70/101/4 208/204/4 209/205/4 
f 209/205/4 71/103/4 70/101/4 
f 71/103/4 209/205/4 210/206/4 
f 210/206/4 72/105/4 71/103/4 
f 72/105/4 210/206/4 211/207/4 
f 211/207/4 73/107/4 72/105/4 
f 73/107/4 211/207/4 212/208/4 
f 212/208/4 74/109/4 73/107/4 
f 74/109/4 212/208/4 213/209/4 
f 213/209/4 75/8/4 74/109/4 
f 75/8/4 213/209/4 214/19/4 
f 214/19/4 76/5/4 75/8/4 
f 10/210/4 8/9/4 87/69/4 
f 87/69/4 225/211/4 10/210/4 
f 225/211/4 87/69/4 86/71/4 
f 86/71/4 224/212/4 225/211/4 
f 224/212/4 86/71/4 85/73/4 
f 85/73/4 223/213/4 224/212/4 
f 223/213/4 85/73/4 84/75/4 
f 84/75/4 222/214/4 223/213/4 
f 222/214/4 84/75/4 83/77/4 
f 83/77/4 221/215/4 222/214/4 
f 221/215/4 83/77/4 82/79/4 
f 82/79/4 220/216/4 221/215/4 
f 220/216/4 82/79/4 81/81/4 
f 81/81/4 219/217/4 220/216/4 
f 219/217/4 81/81/4 80/83/4 
f 80/83/4 218/218/4 219/217/4 
f 218/218/4 80/83/4 79/85/4 
f 79/85/4 217/219/4 218/218/4 
f 217/219/4 79/85/4 78/87/4 
f 78/87/4 216/220/4 217/219/4 
f 216/220/4 78/87/4 77/21/4 
f 77/21/4 215/20/4 216/220/4 
f 3/166/5 13/166/5 179/167/5 
f 179/167/5 19/167/5 3/166/5 
f 19/167/5 179/167/5 178/168/5 
f 178/168/5 20/168/5 19/167/5 
f 20/168/5 178/168/5 177/169/5 
f 177/169/5 21/169/5 20/168/5 
f 21/169/5 177/169/5 176/170/5 
f 176/170/5 22/170/5 21/169/5 
f 22/170/5 176/170/5 175/171/5 
f 175/171/5 23/171/5 22/170/5 
f 23/171/5 175/171/5 174/172/5 
f 174/172/5 24/172/5 23/171/5 
f 24/172/5 174/172/5 173/173/5 
f 173/173/5 25/173/5 24/172/5 
f 25/173/5 173/173/5 172/174/5 
f 172/174/5 26/174/5 25/173/5 
f 26/174/5 172/174/5 171/175/5 
f 171/175/5 27/175/5 26/174/5 
f 27/175/5 171/175/5 170/176/5 
f 170/176/5 28/176/5 27/175/5 
f 28/176/5 170/176/5 169/14/5 
f 169/14/5 29/14/5 28/176/5 
f 29/14/5 169/14/5 168/13/5 
f 168/13/5 30/13/5 29/14/5 
f 14/155/5 4/155/5 41/156/5 
f 41/156/5 157/156/5 14/155/5 
f 157/156/5 41/156/5 40/157/5 
f 40/157/5 158/157/5 157/156/5 
f 158/157/5 40/157/5 39/158/5 
f 39/158/5 159/158/5 158/157/5 
f 159/158/5 39/158/5 38/159/5 
f 38/159/5 160/159/5 159/158/5 
f 160/159/5 38/159/5 37/160/5 
f 37/160/5 161/160/5 160/159/5 
f 161/160/5 37/160/5 36/161/5 
f 36/161/5 162/161/5 161/160/5 
f 162/161/5 36/161/5 35/162/5 
f 35/162/5 163/162/5 162/161/5 
f 163/162/5 35/162/5 34/163/5 
f 34/163/5 164/163/5 163/162/5 
f 164/163/5 34/163/5 33/164/5 
f 33/164/5 165/164/5 164/163/5 
f 165/164/5 33/164/5 32/165/5 
f 32/165/5 166/165/5 165/164/5 
f 166/165/5 32/165/5 31/22/5 
f 31/22/5 167/22/5 166/165/5 
f 5/133/6 15/133/6 156/136/6 
f 156/136/6 88/136/6 5/133/6 
f 88/136/6 156/136/6 155/138/6 
f 155/138/6 89/138/6 88/136/6 
f 89/138/6 155/138/6 154/140/6 
f 154/140/6 90/140/6 89/138/6 
f 90/140/6 154/140/6 153/142/6 
f 153/142/6 91/142/6 90/140/6 
f 91/142/6 153/142/6 152/144/6 
f 152/144/6 92/144/6 91/142/6 
f 92/144/6 152/144/6 151/146/6 
f 151/146/6 93/146/6 92/144/6 
f 93/146/6 151/146/6 150/148/6 
f 150/148/6 94/148/6 93/146/6 
f 94/148/6 150/148/6 149/150/6 
f 149/150/6 95/150/6 94/148/6 
f 95/150/6 149/150/6 148/152/6 
f 148/152/6 96/152/6 95/150/6 
f 96/152/6 148/152/6 147/154/6 
f 147/154/6 97/154/6 96/152/6 
f 97/154/6 147/154/6 146/11/6 
f 146/11/6 98/11/6 97/154/6 
f 98/11/6 146/11/6 145/10/6 
f 145/10/6 99/10/6 98/11/6 
f 16/112/6 6/112/6 110/113/6 
f 110/113/6 134/113/6 16/112/6 
f 134/113/6 110/113/6 109/115/6 
f 109/115/6 135/115/6 134/113/6 
f 135/115/6 109/115/6 108/117/6 
f 108/117/6 136/117/6 135/115/6 
f 136/117/6 108/117/6 107/119/6 
f 107/119/6 137/119/6 136/117/6 
f 137/119/6 107/119/6 106/121/6 
f 106/121/6 138/121/6 137/119/6 
f 138/121/6 106/121/6 105/123/6 
f 105/123/6 139/123/6 138/121/6 
f 139/123/6 105/123/6 104/125/6 
f 104/125/6 140/125/6 139/123/6 
f 140/125/6 104/125/6 103/127/6 
f 103/127/6 141/127/6 140/125/6 
f 141/127/6 103/127/6 102/129/6 
f 102/129/6 142/129/6 141/127/6 
f 142/129/6 102/129/6 101/131/6 
f 101/131/6 143/131/6 142/129/6 
f 143/131/6 101/131/6 100/23/6 
f 100/23/6 144/23/6 143/131/6 
# 384 faces

