# 3ds Max Wavefront OBJ Exporter v0.97b - (c)2007 guruware
# File Created: 03.09.2015 20:06:38

mtllib Ground_Node_LOD.mtl

#
# object Plane002
#

v  -3.00000 -0.30000 32.00000
v  -3.00000 -0.30000 -0.00000
v  -5.00000 -0.30000 -0.00000
v  -5.00000 -0.30000 32.00000
v  -5.00000 -0.30000 -32.00000
v  5.00000 -0.30000 32.00000
v  5.00000 -0.30000 -0.00000
v  3.00000 -0.30000 -0.00000
v  3.00000 -0.30000 32.00000
v  5.00000 -0.30000 -32.00000
v  0.00000 -0.30000 32.00000
v  0.00000 -0.30000 -0.00000
# 12 vertices

vn 0.00000 1.00000 -0.00000
vn 0.00000 1.00000 0.00000
# 2 vertex normals

vt 0.20000 0.00000 0.00000
vt 0.20000 0.50000 0.00000
vt 0.00000 0.50000 0.00000
vt 0.00000 0.00000 0.00000
vt 0.00000 1.00000 0.00000
vt 1.00000 0.00000 0.00000
vt 1.00000 0.50000 0.00000
vt 0.80000 0.50000 0.00000
vt 0.80000 0.00000 0.00000
vt 0.80000 1.00000 0.00000
vt 0.50000 0.00000 0.00000
vt 0.50000 0.50000 0.00000
vt 0.20000 1.00000 0.00000
# 13 texture coords

g Plane002
usemtl wire_228184153
f 1/1/1 2/2/2 3/3/2 
f 3/3/2 4/4/1 1/1/1 
f 5/5/2 3/3/2 2/2/2 
f 6/6/1 7/7/1 8/8/1 
f 8/8/1 9/9/1 6/6/1 
f 10/10/1 8/8/1 7/7/1 
f 11/11/1 12/12/2 2/2/2 
f 2/2/2 1/1/1 11/11/1 
f 5/13/2 2/2/2 12/12/2 
f 9/9/1 8/8/1 12/12/2 
f 12/12/2 11/11/1 9/9/1 
f 8/8/1 10/10/1 12/12/1 
f 10/10/2 5/13/2 12/12/2 
# 13 faces

